<?xml version="1.0" encoding="UTF-8"?>
<svg version="1.1" xmlns="http://www.w3.org/2000/svg" width="546" height="250">
<path d="M0 0 C180.18 0 360.36 0 546 0 C546 82.5 546 165 546 250 C365.82 250 185.64 250 0 250 C0 167.5 0 85 0 0 Z " fill="#FEFEFE" transform="translate(0,0)"/>
<path d="M0 0 C3.96 0 7.92 0 12 0 C12.33 5.94 12.66 11.88 13 18 C13.66 17.67 14.32 17.34 15 17 C17.08060425 16.8764282 19.16576333 16.82439633 21.25 16.8125 C22.36890625 16.79832031 23.4878125 16.78414062 24.640625 16.76953125 C28 17 28 17 34 19 C34 12.73 34 6.46 34 0 C37.96 0 41.92 0 46 0 C46 9.24 46 18.48 46 28 C45.34 28 44.68 28 44 28 C44.16298584 28.5165918 44.32597168 29.03318359 44.49389648 29.56542969 C45.15251519 32.73366209 45.11136893 35.71693238 45.09765625 38.953125 C45.0962413 39.61334656 45.09482635 40.27356812 45.09336853 40.95379639 C45.08779245 43.05257794 45.07524447 45.15125095 45.0625 47.25 C45.0574819 48.67708179 45.05291954 50.10416525 45.04882812 51.53125 C45.03783088 55.02086832 45.0205828 58.51042356 45 62 C41.37 62 37.74 62 34 62 C33.505 53.09 33.505 53.09 33 44 C31.515 44.495 31.515 44.495 30 45 C27.68980664 45.12070269 25.3758126 45.175363 23.0625 45.1875 C21.83660156 45.20167969 20.61070313 45.21585938 19.34765625 45.23046875 C16 45 16 45 12 43 C12 49.27 12 55.54 12 62 C8.04 62 4.08 62 0 62 C-0.02696182 57.43746052 -0.04682103 52.8750803 -0.0625 48.3125 C-0.07087891 47.01892578 -0.07925781 45.72535156 -0.08789062 44.39257812 C-0.09111328 43.14541016 -0.09433594 41.89824219 -0.09765625 40.61328125 C-0.10551147 38.89298706 -0.10551147 38.89298706 -0.11352539 37.13793945 C0 34 0 34 0.56860352 31.27416992 C1.2202226 28.84817798 1.2202226 28.84817798 0 26 C-0.08291953 24.0079697 -0.10738177 22.01326287 -0.09765625 20.01953125 C-0.09443359 18.85615234 -0.09121094 17.69277344 -0.08789062 16.49414062 C-0.07951172 15.27919922 -0.07113281 14.06425781 -0.0625 12.8125 C-0.05798828 11.58595703 -0.05347656 10.35941406 -0.04882812 9.09570312 C-0.03703076 6.06378135 -0.01909514 3.0318846 0 0 Z " fill="#4A9E76" transform="translate(74,109)"/>
<path d="M0 0 C3.3 0 6.6 0 10 0 C10 11.55 10 23.1 10 35 C6.7 35 3.4 35 0 35 C0 34.01 0 33.02 0 32 C-0.99 32.7425 -0.99 32.7425 -2 33.5 C-5.96633241 35.48316621 -8.60303262 35.22357461 -13 35 C-13 34.34 -13 33.68 -13 33 C-13.5775 32.7525 -14.155 32.505 -14.75 32.25 C-17.3002997 30.83316683 -19.01785701 29.12372463 -21 27 C-21.2475 27.5775 -21.495 28.155 -21.75 28.75 C-23.27717864 31.49892155 -24.44886792 33.12021847 -27 35 C-33.46159394 35.93797331 -33.46159394 35.93797331 -36.8515625 33.87109375 C-38.5 32.5 -38.5 32.5 -41 30 C-41 31.32 -41 32.64 -41 34 C-43.64 34 -46.28 34 -49 34 C-49 23.11 -49 12.22 -49 1 C-46.03 1 -43.06 1 -40 1 C-40 5.29 -40 9.58 -40 14 C-39.34 14 -38.68 14 -38 14 C-37.34 12.68 -36.68 11.36 -36 10 C-28.08115016 9.37891374 -28.08115016 9.37891374 -24.0625 11.6875 C-21.94228842 14.06470692 -20.92570369 15.97042428 -20 19 C-19.5875 18.2575 -19.175 17.515 -18.75 16.75 C-15.6 11.8 -15.6 11.8 -13 10 C-9.61756088 9.50661342 -6.36426705 9.34941874 -3 10 C-2.34 10.99 -1.68 11.98 -1 13 C-0.505 6.565 -0.505 6.565 0 0 Z " fill="#484848" transform="translate(481,118)"/>
<path d="M0 0 C3.63 0 7.26 0 11 0 C11 3.96 11 7.92 11 12 C11.99 11.34 12.98 10.68 14 10 C20.77340219 9.11168496 20.77340219 9.11168496 23.85546875 11.34375 C25.5 13 25.5 13 28 16 C29.299375 14.515 29.299375 14.515 30.625 13 C35.24545908 8.97725944 39.91737396 9.4409718 45.79296875 9.59375 C50.0495954 10.13295727 52.11811526 11.19160566 55.25 14.0625 C57.65683256 18.10254037 57.69491624 21.4035058 57 26 C55.75 28.8125 55.75 28.8125 54 31 C53.18015625 32.03833984 53.18015625 32.03833984 52.34375 33.09765625 C48.32800833 36.3570999 43.68112618 35.73228245 38.73046875 35.5390625 C33.55781217 34.79160008 30.51560833 32.77394377 27 29 C27 30.98 27 32.96 27 35 C23.7 35 20.4 35 17 35 C16.67 29.72 16.34 24.44 16 19 C14.35 19.33 12.7 19.66 11 20 C10.67 24.62 10.34 29.24 10 34 C6.7 34 3.4 34 0 34 C0 22.78 0 11.56 0 0 Z " fill="#535353" transform="translate(300,118)"/>
<path d="M0 0 C0.09662822 3.64167599 -0.12379578 5.83390538 -2 9 C-3.98 9 -5.96 9 -8 9 C-8 9.66 -8 10.32 -8 11 C-5.36 11 -2.72 11 0 11 C0 13.64 0 16.28 0 19 C-1.98 19 -3.96 19 -6 19 C-6 24.28 -6 29.56 -6 35 C-9.3 35 -12.6 35 -16 35 C-16 29.72 -16 24.44 -16 19 C-16.99 19 -17.98 19 -19 19 C-19 20.98 -19 22.96 -19 25 C-25.27 25 -31.54 25 -38 25 C-37.34 25.99 -36.68 26.98 -36 28 C-31.82339427 28.26518132 -28.95659266 28.31886422 -25 27 C-22.3125 27.9375 -22.3125 27.9375 -20 29 C-20.6875 30.9375 -20.6875 30.9375 -22 33 C-24.625 33.75 -24.625 33.75 -27 34 C-27 34.66 -27 35.32 -27 36 C-39.5080689 36.76165507 -39.5080689 36.76165507 -43.04296875 34.95703125 C-44.375 33.625 -44.375 33.625 -46 31 C-46 30.34 -46 29.68 -46 29 C-46.66 29 -47.32 29 -48 29 C-48.86101859 18.24683455 -48.86101859 18.24683455 -45.625 14.375 C-41.09511959 10.27653677 -37.38955273 10.5597755 -31.421875 10.56640625 C-26.24166377 11.22280288 -22.87599191 13.63479772 -19 17 C-19 15.02 -19 13.04 -19 11 C-18.01 11 -17.02 11 -16 11 C-15.9071875 9.39125 -15.9071875 9.39125 -15.8125 7.75 C-15 4 -15 4 -13.0625 1.5625 C-8.70740598 -0.65948675 -4.79719226 -0.33533771 0 0 Z " fill="#4D4D4D" transform="translate(240,117)"/>
<path d="M0 0 C3.63 0 7.26 0 11 0 C11.33 4.29 11.66 8.58 12 13 C12.66 12.34 13.32 11.68 14 11 C16.0234375 10.69921875 16.0234375 10.69921875 18.375 10.6875 C19.53128906 10.66236328 19.53128906 10.66236328 20.7109375 10.63671875 C23.61153376 11.09705229 24.86737307 11.99467756 27 14 C27.45410156 16.17651367 27.45410156 16.17651367 27.390625 18.66796875 C27.37128906 20.00698242 27.37128906 20.00698242 27.3515625 21.37304688 C27.31804687 22.30181641 27.28453125 23.23058594 27.25 24.1875 C27.23195312 25.12787109 27.21390625 26.06824219 27.1953125 27.03710938 C27.14817752 29.35850736 27.0764339 31.67938194 27 34 C24.03 34 21.06 34 18 34 C17.67 29.38 17.34 24.76 17 20 C15.35 20 13.7 20 12 20 C11.67 24.95 11.34 29.9 11 35 C7.37 35 3.74 35 0 35 C0 23.45 0 11.9 0 0 Z " fill="#4C4C4C" transform="translate(163,118)"/>
<path d="M0 0 C3.63 0 7.26 0 11 0 C11 3.96 11 7.92 11 12 C11.99 11.34 12.98 10.68 14 10 C20.93146853 9.33986014 20.93146853 9.33986014 24.23828125 11.3828125 C26.98808177 15.46788201 26.42477612 19.45037892 26.25 24.25 C26.23195313 25.18585938 26.21390625 26.12171875 26.1953125 27.0859375 C26.14825673 29.39167015 26.08253713 31.69530945 26 34 C23.36 34 20.72 34 18 34 C17.67 29.38 17.34 24.76 17 20 C15.02 20 13.04 20 11 20 C10.67 24.62 10.34 29.24 10 34 C6.7 34 3.4 34 0 34 C0 22.78 0 11.56 0 0 Z " fill="#3E3E3E" transform="translate(300,118)"/>
<path d="M0 0 C2.88739591 2.03460689 3.56125695 4.94014516 4.6796875 8.18359375 C4.6796875 9.50359375 4.6796875 10.82359375 4.6796875 12.18359375 C-1.5903125 12.18359375 -7.8603125 12.18359375 -14.3203125 12.18359375 C-14.3203125 13.17359375 -14.3203125 14.16359375 -14.3203125 15.18359375 C-11.64387293 16.07574027 -10.06646872 16.31899586 -7.3203125 16.30859375 C-6.299375 16.31246094 -6.299375 16.31246094 -5.2578125 16.31640625 C-3.10156469 16.24990501 -3.10156469 16.24990501 -0.3203125 15.18359375 C2.3671875 16.12109375 2.3671875 16.12109375 4.6796875 17.18359375 C3.20959996 21.05927909 1.36660349 22.38087516 -2.3203125 24.18359375 C-5.51171875 24.546875 -5.51171875 24.546875 -8.8828125 24.49609375 C-9.99785156 24.49222656 -11.11289062 24.48835938 -12.26171875 24.484375 C-15.27944392 24.18761275 -16.88431752 23.94795773 -19.3203125 22.18359375 C-22.99422307 17.43010581 -22.96080683 13.05838647 -22.76953125 7.234375 C-22.3203125 4.18359375 -22.3203125 4.18359375 -20.1953125 0.87109375 C-14.82422284 -2.51165983 -5.79660167 -2.03954503 0 0 Z " fill="#474747" transform="translate(424.3203125,128.81640625)"/>
<path d="M0 0 C1.27746094 0.00128906 2.55492187 0.00257812 3.87109375 0.00390625 C7.73020308 0.45719846 10.22771741 1.49435775 13.5625 3.4375 C13.5625 4.4275 13.5625 5.4175 13.5625 6.4375 C9.82284036 8.93060643 8.27179359 8.4978261 3.875 8.0625 C2.69550781 7.95164063 1.51601562 7.84078125 0.30078125 7.7265625 C-0.60285156 7.63117188 -1.50648438 7.53578125 -2.4375 7.4375 C-2.7675 8.4275 -3.0975 9.4175 -3.4375 10.4375 C-1.86548828 10.36789063 -1.86548828 10.36789063 -0.26171875 10.296875 C1.11715901 10.25935452 2.49606758 10.22295464 3.875 10.1875 C4.56529297 10.15398437 5.25558594 10.12046875 5.96679688 10.0859375 C11.06736341 9.98737583 11.06736341 9.98737583 13.5390625 12.234375 C15.14662898 15.69493796 14.65517783 17.83809068 13.5625 21.4375 C10.55928045 24.78394465 8.76166202 25.31127242 4.296875 25.78125 C-2.32467042 25.95031073 -7.64094405 25.74981769 -13.4375 22.4375 C-13.1075 21.1175 -12.7775 19.7975 -12.4375 18.4375 C-11.4475 18.4375 -10.4575 18.4375 -9.4375 18.4375 C-9.4375 17.7775 -9.4375 17.1175 -9.4375 16.4375 C-2.5075 16.9325 -2.5075 16.9325 4.5625 17.4375 C4.5625 16.4475 4.5625 15.4575 4.5625 14.4375 C3.67046875 14.46070313 2.7784375 14.48390625 1.859375 14.5078125 C0.68890625 14.52585938 -0.4815625 14.54390625 -1.6875 14.5625 C-3.42773438 14.59730469 -3.42773438 14.59730469 -5.203125 14.6328125 C-8.26536046 14.4478949 -9.87952751 14.04573023 -12.4375 12.4375 C-12.92578125 6.578125 -12.92578125 6.578125 -12.4375 4.4375 C-8.60452457 0.26203437 -5.53025381 -0.08353858 0 0 Z " fill="#4A4A4A" transform="translate(254.4375,127.5625)"/>
<path d="M0 0 C2.75275517 1.00734881 3.85185485 1.91152555 6 4 C6.33 4.99 6.66 5.98 7 7 C4.41212273 9.58787727 2.57992139 9.62709152 -1 10 C-1.66 9.67 -2.32 9.34 -3 9 C-6.04173894 8.83329727 -6.04173894 8.83329727 -9 9 C-10.28322547 10.0595877 -10.28322547 10.0595877 -10.125 12.5 C-10.28322547 14.9404123 -10.28322547 14.9404123 -9 16 C-5.43673554 16.07290567 -1.88367336 15.9960357 1.6796875 15.9375 C5 16 5 16 8 17 C8 20 8 20 5.9375 22.6875 C1.49026415 26.20466489 -4.05759166 25.60984483 -9.44140625 25.6640625 C-13.84059191 24.84313872 -15.24432889 23.45829249 -18 20 C-20.59681017 15.8798331 -20.82884287 11.74327903 -20 7 C-15.40758168 -1.22879417 -8.54633196 -0.76751039 0 0 Z " fill="#4E4E4E" transform="translate(290,128)"/>
<path d="M0 0 C3.05931928 1.88381729 4.43714634 4.05042282 5.8984375 7.2265625 C-0.48383195 8.05008114 -6.66900849 8.34742468 -13.1015625 8.2265625 C-12.4415625 10.5365625 -11.7815625 12.8465625 -11.1015625 15.2265625 C-10.44929688 15.20335937 -9.79703125 15.18015625 -9.125 15.15625 C-4.01457347 15.05072497 0.10268783 15.20729948 4.8984375 17.2265625 C4.2384375 18.5465625 3.5784375 19.8665625 2.8984375 21.2265625 C2.2384375 21.2265625 1.5784375 21.2265625 0.8984375 21.2265625 C0.5684375 22.2165625 0.2384375 23.2065625 -0.1015625 24.2265625 C-15.14256007 25.08768831 -15.14256007 25.08768831 -18.9765625 21.8515625 C-22.59372412 17.38330402 -22.63931459 13.89269594 -22.55078125 8.2265625 C-22.07656351 5.0596127 -21.62451078 3.74704765 -19.4140625 1.4765625 C-13.9394015 -2.29983631 -6.11582364 -2.25080498 0 0 Z " fill="#4D4D4D" transform="translate(394.1015625,128.7734375)"/>
<path d="M0 0 C3.39611234 1.20708965 5.4168694 2.90936667 7.14453125 6.140625 C7.42683594 6.75421875 7.70914063 7.3678125 8 8 C1.61773055 8.82351864 -4.56744599 9.12086218 -11 9 C-10.34 11.31 -9.68 13.62 -9 16 C-8.34773437 15.97679687 -7.69546875 15.95359375 -7.0234375 15.9296875 C-1.91301097 15.82416247 2.20425033 15.98073698 7 18 C5.52919037 21.87758901 3.67949611 23.18315337 0 25 C-4.38770164 25.65163886 -8.60780175 25.62020771 -13 25 C-16.1875 22.625 -16.1875 22.625 -18 20 C-18.66 19.34 -19.32 18.68 -20 18 C-20.67700531 13.63866051 -21.02391315 8.97169893 -18.94921875 4.9765625 C-13.72838461 -1.33772068 -7.68800947 -0.68192551 0 0 Z " fill="#4B4B4B" transform="translate(154,128)"/>
<path d="M0 0 C0.09662822 3.64167599 -0.12379578 5.83390538 -2 9 C-3.98 9 -5.96 9 -8 9 C-8 9.66 -8 10.32 -8 11 C-5.36 11 -2.72 11 0 11 C0 13.64 0 16.28 0 19 C-1.98 19 -3.96 19 -6 19 C-6 24.28 -6 29.56 -6 35 C-9.3 35 -12.6 35 -16 35 C-16 29.39 -16 23.78 -16 18 C-16.66 18 -17.32 18 -18 18 C-18 16.02 -18 14.04 -18 12 C-17.34 12 -16.68 12 -16 12 C-15.938125 10.7625 -15.87625 9.525 -15.8125 8.25 C-15.39130279 5.12427332 -15.0614991 4.07935368 -13.0625 1.5 C-8.70276887 -0.63537851 -4.76870793 -0.33334657 0 0 Z " fill="#474747" transform="translate(240,117)"/>
<path d="M0 0 C1.66482422 -0.00773437 1.66482422 -0.00773437 3.36328125 -0.015625 C6.7671616 0.25636544 9.50761732 1.03769979 12.6875 2.25 C13.05467663 9.7159249 13.05467663 9.7159249 11.3125 12.25 C9.6875 13.25 9.6875 13.25 7.6875 13.25 C7.6875 13.91 7.6875 14.57 7.6875 15.25 C6.6975 15.25 5.7075 15.25 4.6875 15.25 C4.6875 15.91 4.6875 16.57 4.6875 17.25 C1.5 17.5625 1.5 17.5625 -2.3125 17.25 C-5.29337575 14.79905772 -7.17601998 12.45472002 -9.3125 9.25 C-9.625 5.6875 -9.625 5.6875 -9.3125 2.25 C-5.77580969 -0.10779354 -4.18693306 -0.01931688 0 0 Z " fill="#FA8822" transform="translate(95.3125,125.75)"/>
<path d="M0 0 C0.66 0 1.32 0 2 0 C3.40234375 1.6796875 3.40234375 1.6796875 4.9375 3.875 C6.89947938 6.67496035 8.09094143 8.06062762 11 10 C11.34057617 12.06298828 11.34057617 12.06298828 11.29296875 14.5703125 C11.28330078 15.46621094 11.27363281 16.36210937 11.26367188 17.28515625 C11.23853516 18.22230469 11.21339844 19.15945312 11.1875 20.125 C11.17396484 21.06988281 11.16042969 22.01476562 11.14648438 22.98828125 C11.11106799 25.32576253 11.0572598 27.66295178 11 30 C7.04 30 3.08 30 -1 30 C-1.0246985 26.04900072 -1.04285923 22.09803126 -1.05493164 18.14697266 C-1.06244036 16.14093449 -1.0751447 14.13491798 -1.08789062 12.12890625 C-1.09111328 10.87207031 -1.09433594 9.61523438 -1.09765625 8.3203125 C-1.10289307 7.15773926 -1.10812988 5.99516602 -1.11352539 4.79736328 C-1 2 -1 2 0 0 Z " fill="#FD9031" transform="translate(75,141)"/>
<path d="M0 0 C0.66 0.33 1.32 0.66 2 1 C2 10.9 2 20.8 2 31 C-1.63 31 -5.26 31 -9 31 C-9.19015184 27.80967461 -9.32815634 24.63078123 -9.4375 21.4375 C-9.49615234 20.54224609 -9.55480469 19.64699219 -9.61523438 18.72460938 C-9.78579531 12.0727331 -9.78579531 12.0727331 -7.48095703 8.92626953 C-5.59765625 7.09765625 -5.59765625 7.09765625 -3.71118164 5.55493164 C-1.83815499 3.85293325 -0.99070516 2.30873306 0 0 Z " fill="#FA8B27" transform="translate(117,140)"/>
<path d="M0 0 C0.33 0 0.66 0 1 0 C1 11.22 1 22.44 1 34 C4.3 34 7.6 34 11 34 C11 29.38 11 24.76 11 20 C11.66 19.67 12.32 19.34 13 19 C12.67 24.28 12.34 29.56 12 35 C8.04 35 4.08 35 0 35 C-0.33 32.36 -0.66 29.72 -1 27 C-2.20398438 27.02320313 -3.40796875 27.04640625 -4.6484375 27.0703125 C-6.22395215 27.08906863 -7.79947348 27.10726899 -9.375 27.125 C-10.1690625 27.14175781 -10.963125 27.15851563 -11.78125 27.17578125 C-13.85492015 27.19335473 -15.92883241 27.10335168 -18 27 C-20 25 -20 25 -20.25 22.5 C-20 20 -20 20 -18 18 C-15.12489233 17.81249298 -12.70636332 17.78595051 -9.9375 18.625 C-7.11294683 19.17168771 -5.4867044 18.34416454 -3 17 C-2.67 16.01 -2.34 15.02 -2 14 C-1.67 14.33 -1.34 14.66 -1 15 C-0.67 10.05 -0.34 5.1 0 0 Z " fill="#E4E4E4" transform="translate(299,118)"/>
<path d="M0 0 C2.97 0 5.94 0 9 0 C9 7.59 9 15.18 9 23 C6.03 23 3.06 23 0 23 C0 15.41 0 7.82 0 0 Z " fill="#3E3E3E" transform="translate(360,129)"/>
<path d="M0 0 C0.66 0 1.32 0 2 0 C2.495 6.93 2.495 6.93 3 14 C1.68 14 0.36 14 -1 14 C-1 13.34 -1 12.68 -1 12 C-5.18546384 11.40207659 -9.14645829 10.94633127 -13.375 11.0625 C-17 11 -17 11 -19 9 C-19.125 5.875 -19.125 5.875 -19 3 C-15.69005287 1.34502644 -12.00877 1.89915665 -8.375 1.9375 C-7.57320313 1.94201172 -6.77140625 1.94652344 -5.9453125 1.95117188 C-3.96350994 1.96296832 -1.98174567 1.98090395 0 2 C0 1.34 0 0.68 0 0 Z " fill="#F1F1F1" transform="translate(400,134)"/>
<path d="M0 0 C3.63 0 7.26 0 11 0 C11.495 6.93 11.495 6.93 12 14 C11.34 14 10.68 14 10 14 C10 9.71 10 5.42 10 1 C7.03 1 4.06 1 1 1 C1 11.89 1 22.78 1 34 C3.64 34 6.28 34 9 34 C9 34.33 9 34.66 9 35 C7.54257537 35.08096803 6.08387193 35.13917774 4.625 35.1875 C3.81289063 35.22230469 3.00078125 35.25710937 2.1640625 35.29296875 C1.44992187 35.19628906 0.73578125 35.09960938 0 35 C-0.66 34.01 -1.32 33.02 -2 32 C-2.66 31.67 -3.32 31.34 -4 31 C-3.34 30.01 -2.68 29.02 -2 28 C-4.3260857 27.61936779 -6.66055264 27.28730055 -9 27 C-9.33 27.33 -9.66 27.66 -10 28 C-17.45864662 28.36090226 -17.45864662 28.36090226 -21 26 C-21 25.01 -21 24.02 -21 23 C-14.73 23 -8.46 23 -2 23 C-2.33 20.36 -2.66 17.72 -3 15 C-2.34 15.66 -1.68 16.32 -1 17 C-0.67 11.39 -0.34 5.78 0 0 Z " fill="#AAAAAA" transform="translate(431,118)"/>
<path d="M0 0 C0.33 0 0.66 0 1 0 C1 4.29 1 8.58 1 13 C0.01 13.495 0.01 13.495 -1 14 C-1 13.34 -1 12.68 -1 12 C-5.18546384 11.40207659 -9.14645829 10.94633127 -13.375 11.0625 C-17 11 -17 11 -19 9 C-19.125 5.875 -19.125 5.875 -19 3 C-15.69005287 1.34502644 -12.00877 1.89915665 -8.375 1.9375 C-7.57320312 1.94201172 -6.77140625 1.94652344 -5.9453125 1.95117188 C-3.96350994 1.96296832 -1.98174567 1.98090395 0 2 C0 1.34 0 0.68 0 0 Z " fill="#EEEEEE" transform="translate(162,134)"/>
<path d="M0 0 C0.99 0 1.98 0 3 0 C3 5.28 3 10.56 3 16 C2.34 14.68 1.68 13.36 1 12 C0.34 12 -0.32 12 -1 12 C-1 11.34 -1 10.68 -1 10 C-3.3260857 9.61936779 -5.66055264 9.28730055 -8 9 C-8.33 9.33 -8.66 9.66 -9 10 C-11.67058851 10.14115161 -14.32432238 10.04247107 -17 10 C-17.66 8.68 -18.32 7.36 -19 6 C-12.73 6 -6.46 6 0 6 C0 4.02 0 2.04 0 0 Z " fill="#D8D8D8" transform="translate(221,136)"/>
<path d="M0 0 C2.01822917 0.06510417 4.03645833 0.13020833 6.0546875 0.1953125 C7.54575207 3.17744163 7.17410217 5.91140908 7.0546875 9.1953125 C5.16340408 11.08659592 2.48401024 10.4319977 -0.03515625 10.5234375 C-0.66550781 10.41515625 -1.29585938 10.306875 -1.9453125 10.1953125 C-4.09447035 6.97157573 -4.32818053 5.92827576 -3.9453125 2.1953125 C-1.9453125 0.1953125 -1.9453125 0.1953125 0 0 Z " fill="#5B5B5B" transform="translate(362.9453125,115.8046875)"/>
<path d="M0 0 C0.66 0 1.32 0 2 0 C3.0723969 3.68636433 3.04183175 6.97314114 2.9375 10.78125 C3.00005931 13.00210533 3.3812287 14.87297365 4 17 C2.68 17.33 1.36 17.66 0 18 C0.04125 16.906875 0.0825 15.81375 0.125 14.6875 C0.32074666 10.91107771 0.32074666 10.91107771 -2 8 C-4.609621 7.61588725 -7.0058074 7.39706803 -9.625 7.3125 C-10.33140625 7.27833984 -11.0378125 7.24417969 -11.765625 7.20898438 C-13.50985688 7.12648692 -15.25490395 7.06156665 -17 7 C-16.67 5.68 -16.34 4.36 -16 3 C-15.09636719 3.08378906 -14.19273437 3.16757813 -13.26171875 3.25390625 C-12.08222656 3.35574219 -10.90273438 3.45757812 -9.6875 3.5625 C-8.51574219 3.66691406 -7.34398437 3.77132812 -6.13671875 3.87890625 C-2.96967425 4.18577434 -2.96967425 4.18577434 0 3 C0 2.01 0 1.02 0 0 Z " fill="#ECECEC" transform="translate(268,131)"/>
<path d="M0 0 C3.63 0 7.26 0 11 0 C11 3.96 11 7.92 11 12 C11.99 11.34 12.98 10.68 14 10 C16.04296875 9.8046875 16.04296875 9.8046875 18.1875 9.875 C20.0746875 9.936875 20.0746875 9.936875 22 10 C22 10.33 22 10.66 22 11 C20.3603125 11.2165625 20.3603125 11.2165625 18.6875 11.4375 C15.06877013 11.88288104 15.06877013 11.88288104 12 13 C11.67 13.99 11.34 14.98 11 16 C10.34 16 9.68 16 9 16 C9 11.05 9 6.1 9 1 C6.36 1 3.72 1 1 1 C1 11.89 1 22.78 1 34 C0.67 34 0.34 34 0 34 C0 22.78 0 11.56 0 0 Z " fill="#7C7C7C" transform="translate(300,118)"/>
<path d="M0 0 C0.66 0.33 1.32 0.66 2 1 C2.125 3.875 2.125 3.875 2 7 C0 9 0 9 -3.5 9.25 C-7 9 -7 9 -9 7 C-9.125 3.875 -9.125 3.875 -9 1 C-5.77390955 -0.07536348 -3.37822416 -0.14375422 0 0 Z " fill="#F1F1F1" transform="translate(346,136)"/>
<path d="M0 0 C1.670625 0.061875 1.670625 0.061875 3.375 0.125 C3.47265625 6.27734375 3.47265625 6.27734375 3.375 8.125 C2.375 9.125 2.375 9.125 0.52734375 9.22265625 C-1.5234375 9.19010417 -3.57421875 9.15755208 -5.625 9.125 C-5.75 5.75 -5.75 5.75 -5.625 2.125 C-3.625 0.125 -3.625 0.125 0 0 Z " fill="#E6E6E6" transform="translate(446.625,135.875)"/>
<path d="M0 0 C2.875 -0.125 2.875 -0.125 6 0 C8 2 8 2 8.125 5.625 C8.08375 6.73875 8.0425 7.8525 8 9 C4.625 9.125 4.625 9.125 1 9 C0.34 8.34 -0.32 7.68 -1 7 C-0.625 3.375 -0.625 3.375 0 0 Z " fill="#EDEDED" transform="translate(473,136)"/>
<path d="M0 0 C6.6 0 13.2 0 20 0 C19.67 1.32 19.34 2.64 19 4 C18.34 3.67 17.68 3.34 17 3 C13.95826106 2.83329727 13.95826106 2.83329727 11 3 C10.67 3.33 10.34 3.66 10 4 C7.32941149 4.14115161 4.67567762 4.04247107 2 4 C1.34 2.68 0.68 1.36 0 0 Z " fill="#E6E6E6" transform="translate(411,142)"/>
<path d="M0 0 C1.22589844 0.01353516 1.22589844 0.01353516 2.4765625 0.02734375 C3.41628906 0.04474609 3.41628906 0.04474609 4.375 0.0625 C4.705 1.3825 5.035 2.7025 5.375 4.0625 C4.385 4.0625 3.395 4.0625 2.375 4.0625 C2.375 4.7225 2.375 5.3825 2.375 6.0625 C-4.25 6.3125 -4.25 6.3125 -7.625 4.0625 C-7.295 3.0725 -6.965 2.0825 -6.625 1.0625 C-4.21954362 -0.14022819 -2.67503047 -0.03821472 0 0 Z " fill="#FDF1E6" transform="translate(97.625,136.9375)"/>
<path d="M0 0 C1.60495567 0.11442461 3.20898119 0.24194694 4.8125 0.375 C5.70582031 0.44460937 6.59914063 0.51421875 7.51953125 0.5859375 C10 1 10 1 13 3 C12 4 12 4 9.05859375 4.09765625 C7.26615234 4.08025391 7.26615234 4.08025391 5.4375 4.0625 C3.64119141 4.04896484 3.64119141 4.04896484 1.80859375 4.03515625 C0.88175781 4.02355469 -0.04507813 4.01195312 -1 4 C-0.67 2.68 -0.34 1.36 0 0 Z " fill="#C0C0C0" transform="translate(252,134)"/>
<path d="M0 0 C4.95 0.33 9.9 0.66 15 1 C15 1.99 15 2.98 15 4 C8.07 3.505 8.07 3.505 1 3 C1 3.66 1 4.32 1 5 C0.34 5 -0.32 5 -1 5 C-0.67 3.35 -0.34 1.7 0 0 Z " fill="#C2C2C2" transform="translate(244,141)"/>
<path d="M0 0 C0.66 0 1.32 0 2 0 C2.66 1.32 3.32 2.64 4 4 C3.01 4 2.02 4 1 4 C1 12.25 1 20.5 1 29 C0.67 29 0.34 29 0 29 C0 19.43 0 9.86 0 0 Z " fill="#F78F30" transform="translate(75,141)"/>
<path d="M0 0 C0.33 0 0.66 0 1 0 C1.33 4.29 1.66 8.58 2 13 C0.68 13 -0.64 13 -2 13 C-2 12.34 -2 11.68 -2 11 C-4.97 10.505 -4.97 10.505 -8 10 C-4.98968256 9.06576355 -4.13349732 8.95550089 -1 10 C-1.020625 8.906875 -1.04125 7.81375 -1.0625 6.6875 C-1 3 -1 3 0 0 Z " fill="#ABABAB" transform="translate(401,135)"/>
<path d="M0 0 C3.96 0 7.92 0 12 0 C9 3 9 3 6.95703125 3.29296875 C4.97135417 3.1953125 2.98567708 3.09765625 1 3 C0.67 2.01 0.34 1.02 0 0 Z " fill="#F8F8F8" transform="translate(202,142)"/>
<path d="M0 0 C1.36421031 2.72842061 0.87807211 4.60953318 0.5625 7.625 C0.40974609 9.12933594 0.40974609 9.12933594 0.25390625 10.6640625 C0.17011719 11.43492187 0.08632813 12.20578125 0 13 C-0.99 12.67 -1.98 12.34 -3 12 C-3.36923077 4.61538462 -3.36923077 4.61538462 -1.5 1.5 C-1.005 1.005 -0.51 0.51 0 0 Z " fill="#9D9D9D" transform="translate(463,133)"/>
<path d="M0 0 C0 0.66 0 1.32 0 2 C-3.3 2 -6.6 2 -10 2 C-10 1.34 -10 0.68 -10 0 C-6.30581799 -1.231394 -3.7943739 -0.64432764 0 0 Z " fill="#CBCBCB" transform="translate(421,136)"/>
<path d="M0 0 C0.33 0 0.66 0 1 0 C1.66 3.63 2.32 7.26 3 11 C1.68 11.33 0.36 11.66 -1 12 C-0.979375 10.906875 -0.95875 9.81375 -0.9375 8.6875 C-0.81455548 5.05615809 -0.81455548 5.05615809 -2 2 C-1.34 2 -0.68 2 0 2 C0 1.34 0 0.68 0 0 Z " fill="#BEBEBE" transform="translate(269,137)"/>
<path d="M0 0 C0.33 0.99 0.66 1.98 1 3 C-1.97 3 -4.94 3 -8 3 C-8 2.34 -8 1.68 -8 1 C-5.07175348 0.02391783 -3.04386724 -0.08226668 0 0 Z " fill="#D1D1D1" transform="translate(210,135)"/>
<path d="M0 0 C0.66 0 1.32 0 2 0 C2 0.66 2 1.32 2 2 C4.31 2.66 6.62 3.32 9 4 C9 4.33 9 4.66 9 5 C2.375 5.25 2.375 5.25 -1 3 C-0.67 2.01 -0.34 1.02 0 0 Z " fill="#B9D1BA" transform="translate(91,138)"/>
<path d="M0 0 C0.66 0.33 1.32 0.66 2 1 C1.2884375 1.804375 1.2884375 1.804375 0.5625 2.625 C-1.28186076 5.42842836 -1.62456847 7.69620258 -2 11 C-2.33 11 -2.66 11 -3 11 C-3.36923077 3.49230769 -3.36923077 3.49230769 -1.5 1 C-1.005 0.67 -0.51 0.34 0 0 Z " fill="#636363" transform="translate(245,129)"/>
</svg>
